<?xml version="1.0" encoding="utf-8"?>
<!-- Generator: Avocode 2.6.0 - http://avocode.com -->
<svg height="46" width="216" xmlns:xlink="http://www.w3.org/1999/xlink" xmlns="http://www.w3.org/2000/svg" viewBox="0 0 116 27">
    <g id="bg">
        <rect width="116" height="27" x="0" y="0" fill="none" id="svg_4"/>
    </g>

    <g id="weka">
        <path d="m14.308,21.09298c-0.563,0 -1.078,-0.318 -1.33,-0.822l-6.07,-12.139c-0.367,-0.735 -0.069,-1.627 0.665,-1.994c0.735,-0.366 1.627,-0.069 1.994,0.665l4.713,9.426l0.174,-0.361c0.355,-0.74 1.244,-1.052 1.983,-0.697c0.74,0.355 1.052,1.243 0.697,1.983l-1.486,3.097c-0.245,0.511 -0.761,0.839 -1.328,0.843c0,-0.001 -0.009,-0.001 -0.012,-0.001z"
              fill="#272223" id="svg_5"/>
        <path d="m22.607,21.09299c-0.566,0 -1.083,-0.321 -1.333,-0.829l-5.987,-12.139c-0.363,-0.736 -0.06,-1.628 0.675,-1.991c0.735,-0.363 1.627,-0.061 1.991,0.675l4.654,9.436l4.654,-9.436c0.363,-0.736 1.255,-1.039 1.991,-0.675c0.736,0.363 1.039,1.254 0.675,1.991l-5.987,12.139c-0.25,0.508 -0.767,0.829 -1.333,0.829z"
              fill="#272223" id="svg_7"/>
        <path d="m43.582,21.24199l-9.827,0c-0.821,0 -1.486,-0.665 -1.486,-1.486l0,-12.288c0,-0.821 0.665,-1.486 1.486,-1.486l9.827,0c0.821,0 1.486,0.665 1.486,1.486s-0.665,1.486 -1.486,1.486l-8.34,0l0,9.315l8.34,0c0.821,0 1.486,0.665 1.486,1.486c0,0.821 -0.665,1.487 -1.486,1.487z"
              fill="#272223" id="svg_9"/>
        <path d="m42.715,14.718l-4.335,0c-0.821,0 -1.486,-0.665 -1.486,-1.486c0,-0.821 0.665,-1.486 1.486,-1.486l4.335,0c0.821,0 1.486,0.665 1.486,1.486c0,0.82 -0.665,1.486 -1.486,1.486z"
              fill="#272223" id="svg_11"/>
        <path d="m48.991,20.95299c-0.821,0 -1.486,-0.665 -1.486,-1.486l0,-11.999c0,-0.821 0.665,-1.486 1.486,-1.486c0.821,0 1.486,0.665 1.486,1.486l0,11.998c0,0.821 -0.665,1.487 -1.486,1.487z"
              fill="#272223" id="svg_13"/>
        <path d="m59.107,21.07699c-0.374,0 -0.747,-0.14 -1.036,-0.42l-6.152,-5.979c-0.285,-0.277 -0.448,-0.658 -0.45,-1.056c-0.003,-0.398 0.154,-0.78 0.436,-1.062l6.152,-6.144c0.581,-0.581 1.522,-0.58 2.102,0.001c0.58,0.581 0.579,1.522 -0.001,2.102l-5.085,5.077l5.07,4.928c0.589,0.572 0.602,1.513 0.03,2.102c-0.291,0.3 -0.678,0.451 -1.066,0.451z"
              fill="#272223" id="svg_15"/>
        <path d="m63.482,21.07699c-0.254,0 -0.511,-0.065 -0.747,-0.202c-0.709,-0.413 -0.949,-1.323 -0.537,-2.033l7.019,-12.057c0.266,-0.456 0.753,-0.737 1.281,-0.738c0,0 0.002,0 0.004,0c0.526,0 1.014,0.278 1.281,0.732l7.102,12.057c0.417,0.707 0.181,1.619 -0.526,2.035c-0.707,0.416 -1.619,0.181 -2.035,-0.526l-5.814,-9.87l-5.742,9.864c-0.276,0.473 -0.774,0.738 -1.286,0.738z"
              fill="#272223" id="svg_17"/>
        <path d="m70.709,17.60799l-4.913,0c-0.821,0 -1.486,-0.665 -1.486,-1.486c0,-0.821 0.665,-1.486 1.486,-1.486l4.913,0c0.821,0 1.486,0.665 1.486,1.486c0,0.821 -0.665,1.486 -1.486,1.486z"
              fill="#272223" id="svg_19"/>
        <path d="m89.95,21.07699c-0.821,0 -1.486,-0.665 -1.486,-1.486l0,-12.263c0,-0.821 0.665,-1.486 1.486,-1.486s1.486,0.665 1.486,1.486l0,12.262c0.001,0.821 -0.665,1.487 -1.486,1.487z"
              fill="#272223" id="svg_21"/>
        <path d="m101.8,8.97899c2.588,0 4.686,2.098 4.686,4.686c0,2.588 -2.098,4.686 -4.686,4.686c-2.588,0 -4.686,-2.098 -4.686,-4.686c0,-2.588 2.098,-4.686 4.686,-4.686m0,-2.973c-4.223,0 -7.659,3.436 -7.659,7.659c0,4.223 3.436,7.659 7.659,7.659c4.223,0 7.659,-3.436 7.659,-7.659c0,-4.223 -3.435,-7.659 -7.659,-7.659l0,0z"
              fill="#272223" id="svg_23"/>
    </g>
    <g id="dots">
        <circle id="svg_1" fill="#63be6a" r="1.982" cx="89.96396" cy="2.288"/>
        <circle id="svg_2" fill="#63be6a" r="1.982" cx="83.82504" cy="19.712"/>
    </g>
</svg>